<?xml version="1.0" standalone="no"?><!DOCTYPE svg PUBLIC "-//W3C//DTD SVG 1.1//EN" "http://www.w3.org/Graphics/SVG/1.1/DTD/svg11.dtd"><svg t="1790062856891" class="icon" viewBox="0 0 1024 1024" version="1.1" xmlns="http://www.w3.org/2000/svg" p-id="1991" xmlns:xlink="http://www.w3.org/1999/xlink" width="200" height="200"><path d="M802.5 180h-83v-62.3c0-11.4-9.3-20.8-20.8-20.8s-20.8 9.3-20.8 20.8V180H346v-62.3c0-11.4-9.3-20.8-20.8-20.8s-20.8 9.3-20.8 20.8V180h-83C153 180 97 236 97 304.5v498C97 871 153 927 221.5 927h581C871 927 927 871 927 802.5v-498C927 236 871 180 802.5 180z m-581 41.5h83v62.3c0 11.4 9.3 20.8 20.8 20.8s20.8-9.3 20.8-20.8v-62.3h332v62.3c0 11.4 9.3 20.8 20.8 20.8s20.8-9.3 20.8-20.8v-62.3h83c45.8 0 83 37.2 83 83v83h-747v-83c-0.2-45.8 37-83 82.8-83z m581 664h-581c-45.8 0-83-37.2-83-83V429h747v373.5c0 45.8-37.2 83-83 83z" p-id="1992" fill="#ffffff"></path><path d="M449.1 575.2h102.4c-14.8 16.9-28.8 37.6-41.9 62.2s-23.2 50.1-30.2 76.6c-5.1 19.1-8.4 36.2-10 51.2-0.9 8.8 6 16.5 14.9 16.5h0.3c7.6 0 14.1-5.7 14.9-13.3 2-18.6 5.3-35.9 10-52 8.1-28.2 19.6-55.7 34.4-82.4 13.7-24.6 27.5-44.7 41.4-60.3 2.3-2.6 3.6-5.9 3.6-9.3v-3.3c0-7.7-6.3-14-14-14H449.1c-7.7 0-14 6.3-14 14 0 7.9 6.2 14.1 14 14.1z" p-id="1993" fill="#ffffff"></path></svg>