<svg xmlns="http://www.w3.org/2000/svg" width="1220" height="400" viewBox="0 0 1220 400"><rect width="1220" height="400" fill="#ffffff"/><rect x="330" y="12" width="14" height="11" fill="#94a3b8" rx="1.5"/><text x="351" y="22" font-family="'Microsoft YaHei','PingFang SC',sans-serif" font-size="13" fill="#334155">传统工艺（药典法）</text><rect x="500" y="12" width="14" height="11" fill="#003f88" rx="1.5"/><text x="521" y="22" font-family="'Microsoft YaHei','PingFang SC',sans-serif" font-size="13" fill="#334155">优化工艺</text><text x="12" y="30" font-family="'Microsoft YaHei','PingFang SC',sans-serif" font-size="15" font-weight="bold" fill="#003f88">（a）单萜与倍半萜类成分</text><line x1="168" y1="60" x2="168" y2="266" stroke="#94a3b8" stroke-width="1.1"/><line x1="168.0" y1="266" x2="168.0" y2="271" stroke="#94a3b8" stroke-width="1.1"/><text x="168.0" y="287" font-family="'Microsoft YaHei','PingFang SC',sans-serif" font-size="12.5" fill="#334155" text-anchor="middle">0</text><line x1="255.5" y1="266" x2="255.5" y2="271" stroke="#94a3b8" stroke-width="1.1"/><text x="255.5" y="287" font-family="'Microsoft YaHei','PingFang SC',sans-serif" font-size="12.5" fill="#334155" text-anchor="middle">5</text><line x1="343.0" y1="266" x2="343.0" y2="271" stroke="#94a3b8" stroke-width="1.1"/><text x="343.0" y="287" font-family="'Microsoft YaHei','PingFang SC',sans-serif" font-size="12.5" fill="#334155" text-anchor="middle">10</text><line x1="430.5" y1="266" x2="430.5" y2="271" stroke="#94a3b8" stroke-width="1.1"/><text x="430.5" y="287" font-family="'Microsoft YaHei','PingFang SC',sans-serif" font-size="12.5" fill="#334155" text-anchor="middle">15</text><text x="318" y="307" font-family="'Microsoft YaHei','PingFang SC',sans-serif" font-size="13" font-weight="bold" fill="#003f88" text-anchor="middle">相对含量 /%</text><text x="12" y="98" font-family="'Microsoft YaHei','PingFang SC',sans-serif" font-size="13.5" fill="#334155">α-香附酮</text><rect x="168" y="80" width="255.8" height="11" fill="#94a3b8" rx="1.5"/><text x="429.9" y="92.5" font-family="Consolas,'Microsoft YaHei','PingFang SC',sans-serif" font-size="12.5" fill="#64748b">14.62</text><rect x="168" y="94" width="266.7" height="11" fill="#003f88" rx="1.5"/><text x="440.7" y="106.5" font-family="Consolas,'Microsoft YaHei','PingFang SC',sans-serif" font-size="12.5" fill="#003f88">15.24</text><text x="12" y="132" font-family="'Microsoft YaHei','PingFang SC',sans-serif" font-size="13.5" fill="#334155">香附烯</text><rect x="168" y="114" width="207.0" height="11" fill="#94a3b8" rx="1.5"/><text x="381.0" y="126.5" font-family="Consolas,'Microsoft YaHei','PingFang SC',sans-serif" font-size="12.5" fill="#64748b">11.83</text><rect x="168" y="128" width="200.6" height="11" fill="#003f88" rx="1.5"/><text x="374.6" y="140.5" font-family="Consolas,'Microsoft YaHei','PingFang SC',sans-serif" font-size="12.5" fill="#003f88">11.46</text><text x="12" y="166" font-family="'Microsoft YaHei','PingFang SC',sans-serif" font-size="13.5" fill="#334155">β-芹子烯</text><rect x="168" y="148" width="164.7" height="11" fill="#94a3b8" rx="1.5"/><text x="338.7" y="160.5" font-family="Consolas,'Microsoft YaHei','PingFang SC',sans-serif" font-size="12.5" fill="#64748b">9.41</text><rect x="168" y="162" width="168.3" height="11" fill="#003f88" rx="1.5"/><text x="342.4" y="174.5" font-family="Consolas,'Microsoft YaHei','PingFang SC',sans-serif" font-size="12.5" fill="#003f88">9.62</text><text x="12" y="200" font-family="'Microsoft YaHei','PingFang SC',sans-serif" font-size="13.5" fill="#334155">α-芹子烯</text><rect x="168" y="182" width="144.2" height="11" fill="#94a3b8" rx="1.5"/><text x="318.2" y="194.5" font-family="Consolas,'Microsoft YaHei','PingFang SC',sans-serif" font-size="12.5" fill="#64748b">8.24</text><rect x="168" y="196" width="146.5" height="11" fill="#003f88" rx="1.5"/><text x="320.5" y="208.5" font-family="Consolas,'Microsoft YaHei','PingFang SC',sans-serif" font-size="12.5" fill="#003f88">8.37</text><text x="12" y="234" font-family="'Microsoft YaHei','PingFang SC',sans-serif" font-size="13.5" fill="#334155">β-香附酮</text><rect x="168" y="216" width="117.4" height="11" fill="#94a3b8" rx="1.5"/><text x="291.4" y="228.5" font-family="Consolas,'Microsoft YaHei','PingFang SC',sans-serif" font-size="12.5" fill="#64748b">6.71</text><rect x="168" y="230" width="120.4" height="11" fill="#003f88" rx="1.5"/><text x="294.4" y="242.5" font-family="Consolas,'Microsoft YaHei','PingFang SC',sans-serif" font-size="12.5" fill="#003f88">6.88</text><line x1="610" y1="40" x2="610" y2="386" stroke="#e2e8f0" stroke-width="1"/><text x="632" y="30" font-family="'Microsoft YaHei','PingFang SC',sans-serif" font-size="15" font-weight="bold" fill="#003f88">（b）含氧倍半萜及其他成分</text><line x1="788" y1="60" x2="788" y2="266" stroke="#94a3b8" stroke-width="1.1"/><line x1="788.0" y1="266" x2="788.0" y2="271" stroke="#94a3b8" stroke-width="1.1"/><text x="788.0" y="287" font-family="'Microsoft YaHei','PingFang SC',sans-serif" font-size="12.5" fill="#334155" text-anchor="middle">0</text><line x1="875.5" y1="266" x2="875.5" y2="271" stroke="#94a3b8" stroke-width="1.1"/><text x="875.5" y="287" font-family="'Microsoft YaHei','PingFang SC',sans-serif" font-size="12.5" fill="#334155" text-anchor="middle">5</text><line x1="963.0" y1="266" x2="963.0" y2="271" stroke="#94a3b8" stroke-width="1.1"/><text x="963.0" y="287" font-family="'Microsoft YaHei','PingFang SC',sans-serif" font-size="12.5" fill="#334155" text-anchor="middle">10</text><line x1="1050.5" y1="266" x2="1050.5" y2="271" stroke="#94a3b8" stroke-width="1.1"/><text x="1050.5" y="287" font-family="'Microsoft YaHei','PingFang SC',sans-serif" font-size="12.5" fill="#334155" text-anchor="middle">15</text><text x="938" y="307" font-family="'Microsoft YaHei','PingFang SC',sans-serif" font-size="13" font-weight="bold" fill="#003f88" text-anchor="middle">相对含量 /%</text><text x="632" y="98" font-family="'Microsoft YaHei','PingFang SC',sans-serif" font-size="13.5" fill="#334155">香附子烯</text><rect x="788" y="80" width="103.6" height="11" fill="#94a3b8" rx="1.5"/><text x="897.6" y="92.5" font-family="Consolas,'Microsoft YaHei','PingFang SC',sans-serif" font-size="12.5" fill="#64748b">5.92</text><rect x="788" y="94" width="101.3" height="11" fill="#003f88" rx="1.5"/><text x="895.3" y="106.5" font-family="Consolas,'Microsoft YaHei','PingFang SC',sans-serif" font-size="12.5" fill="#003f88">5.79</text><text x="632" y="132" font-family="'Microsoft YaHei','PingFang SC',sans-serif" font-size="13.5" fill="#334155">氧化石竹烯</text><rect x="788" y="114" width="81.0" height="11" fill="#94a3b8" rx="1.5"/><text x="875.0" y="126.5" font-family="Consolas,'Microsoft YaHei','PingFang SC',sans-serif" font-size="12.5" fill="#64748b">4.63</text><rect x="788" y="128" width="82.4" height="11" fill="#003f88" rx="1.5"/><text x="876.4" y="140.5" font-family="Consolas,'Microsoft YaHei','PingFang SC',sans-serif" font-size="12.5" fill="#003f88">4.71</text><text x="632" y="166" font-family="'Microsoft YaHei','PingFang SC',sans-serif" font-size="13.5" fill="#334155">β-石竹烯</text><rect x="788" y="148" width="67.4" height="11" fill="#94a3b8" rx="1.5"/><text x="861.4" y="160.5" font-family="Consolas,'Microsoft YaHei','PingFang SC',sans-serif" font-size="12.5" fill="#64748b">3.85</text><rect x="788" y="162" width="68.6" height="11" fill="#003f88" rx="1.5"/><text x="862.6" y="174.5" font-family="Consolas,'Microsoft YaHei','PingFang SC',sans-serif" font-size="12.5" fill="#003f88">3.92</text><text x="632" y="200" font-family="'Microsoft YaHei','PingFang SC',sans-serif" font-size="13.5" fill="#334155">广藿香酮</text><rect x="788" y="182" width="55.0" height="11" fill="#94a3b8" rx="1.5"/><text x="849.0" y="194.5" font-family="Consolas,'Microsoft YaHei','PingFang SC',sans-serif" font-size="12.5" fill="#64748b">3.14</text><rect x="788" y="196" width="53.4" height="11" fill="#003f88" rx="1.5"/><text x="847.4" y="208.5" font-family="Consolas,'Microsoft YaHei','PingFang SC',sans-serif" font-size="12.5" fill="#003f88">3.05</text><text x="632" y="234" font-family="'Microsoft YaHei','PingFang SC',sans-serif" font-size="13.5" fill="#334155">1,8-桉叶油醇</text><rect x="788" y="216" width="42.4" height="11" fill="#94a3b8" rx="1.5"/><text x="836.4" y="228.5" font-family="Consolas,'Microsoft YaHei','PingFang SC',sans-serif" font-size="12.5" fill="#64748b">2.42</text><rect x="788" y="230" width="43.9" height="11" fill="#003f88" rx="1.5"/><text x="837.9" y="242.5" font-family="Consolas,'Microsoft YaHei','PingFang SC',sans-serif" font-size="12.5" fill="#003f88">2.51</text></svg>