<svg xmlns="http://www.w3.org/2000/svg" width="1220" height="330" viewBox="0 0 1220 330"><rect width="1220" height="330" fill="#ffffff"/><line x1="58" y1="224.9" x2="576" y2="224.9" stroke="#f6f9fd" stroke-width="1"/><line x1="58" y1="189.4" x2="576" y2="189.4" stroke="#f6f9fd" stroke-width="1"/><line x1="58" y1="154.0" x2="576" y2="154.0" stroke="#f6f9fd" stroke-width="1"/><line x1="58" y1="118.6" x2="576" y2="118.6" stroke="#f6f9fd" stroke-width="1"/><line x1="58" y1="83.1" x2="576" y2="83.1" stroke="#f6f9fd" stroke-width="1"/><line x1="58" y1="47.7" x2="576" y2="47.7" stroke="#f6f9fd" stroke-width="1"/><line x1="53" y1="224.9" x2="58" y2="224.9" stroke="#94a3b8" stroke-width="1.1"/><text x="49" y="229.4" font-family="'Microsoft YaHei','PingFang SC',sans-serif" font-size="13" fill="#334155" text-anchor="end">0.80</text><line x1="53" y1="154.0" x2="58" y2="154.0" stroke="#94a3b8" stroke-width="1.1"/><text x="49" y="158.5" font-family="'Microsoft YaHei','PingFang SC',sans-serif" font-size="13" fill="#334155" text-anchor="end">1.00</text><line x1="53" y1="83.1" x2="58" y2="83.1" stroke="#94a3b8" stroke-width="1.1"/><text x="49" y="87.6" font-family="'Microsoft YaHei','PingFang SC',sans-serif" font-size="13" fill="#334155" text-anchor="end">1.20</text><line x1="58" y1="30" x2="58" y2="278" stroke="#94a3b8" stroke-width="1.2"/><line x1="58" y1="278" x2="576" y2="278" stroke="#94a3b8" stroke-width="1.2"/><polyline points="80.0,249.7 174.8,175.3 269.6,115.0 364.4,72.5 459.2,61.9 554.0,69.0" fill="none" stroke="#0b4a9e" stroke-width="2.4" stroke-linejoin="round" stroke-linecap="round"/><circle cx="80.0" cy="249.7" r="4" fill="#ffffff" stroke="#0b4a9e" stroke-width="2.2"/><rect x="62.0" y="217.7" width="36.0" height="26" fill="#ffffff"/><text x="80.0" y="236.7" font-family="'Microsoft YaHei','PingFang SC',sans-serif" font-size="12.5" fill="#64748b" font-weight="normal" text-anchor="middle">0.73</text><circle cx="174.8" cy="175.3" r="4" fill="#ffffff" stroke="#0b4a9e" stroke-width="2.2"/><rect x="156.8" y="143.3" width="36.0" height="26" fill="#ffffff"/><text x="174.8" y="162.3" font-family="'Microsoft YaHei','PingFang SC',sans-serif" font-size="12.5" fill="#64748b" font-weight="normal" text-anchor="middle">0.94</text><circle cx="269.6" cy="115.0" r="4" fill="#ffffff" stroke="#0b4a9e" stroke-width="2.2"/><rect x="251.6" y="83.0" width="36.0" height="26" fill="#ffffff"/><text x="269.6" y="102.0" font-family="'Microsoft YaHei','PingFang SC',sans-serif" font-size="12.5" fill="#64748b" font-weight="normal" text-anchor="middle">1.11</text><circle cx="364.4" cy="72.5" r="6.5" fill="#c00000" stroke="#c00000" stroke-width="2.2"/><rect x="346.4" y="38.5" width="36.0" height="26" fill="#ffffff"/><text x="364.4" y="57.5" font-family="'Microsoft YaHei','PingFang SC',sans-serif" font-size="12.5" fill="#c00000" font-weight="bold" text-anchor="middle">1.23</text><circle cx="459.2" cy="61.9" r="4" fill="#ffffff" stroke="#0b4a9e" stroke-width="2.2"/><rect x="441.2" y="29.9" width="36.0" height="26" fill="#ffffff"/><text x="459.2" y="48.9" font-family="'Microsoft YaHei','PingFang SC',sans-serif" font-size="12.5" fill="#64748b" font-weight="normal" text-anchor="middle">1.26</text><circle cx="554.0" cy="69.0" r="4" fill="#ffffff" stroke="#0b4a9e" stroke-width="2.2"/><rect x="536.0" y="37.0" width="36.0" height="26" fill="#ffffff"/><text x="554.0" y="56.0" font-family="'Microsoft YaHei','PingFang SC',sans-serif" font-size="12.5" fill="#64748b" font-weight="normal" text-anchor="middle">1.24</text><line x1="80.0" y1="278" x2="80.0" y2="283" stroke="#94a3b8" stroke-width="1.1"/><text x="80.0" y="299.0" font-family="'Microsoft YaHei','PingFang SC',sans-serif" font-size="13" fill="#334155" text-anchor="middle">1</text><line x1="174.8" y1="278" x2="174.8" y2="283" stroke="#94a3b8" stroke-width="1.1"/><text x="174.8" y="299.0" font-family="'Microsoft YaHei','PingFang SC',sans-serif" font-size="13" fill="#334155" text-anchor="middle">2</text><line x1="269.6" y1="278" x2="269.6" y2="283" stroke="#94a3b8" stroke-width="1.1"/><text x="269.6" y="299.0" font-family="'Microsoft YaHei','PingFang SC',sans-serif" font-size="13" fill="#334155" text-anchor="middle">3</text><line x1="364.4" y1="278" x2="364.4" y2="283" stroke="#94a3b8" stroke-width="1.1"/><text x="364.4" y="299.0" font-family="'Microsoft YaHei','PingFang SC',sans-serif" font-size="13" fill="#334155" text-anchor="middle">4</text><line x1="459.2" y1="278" x2="459.2" y2="283" stroke="#94a3b8" stroke-width="1.1"/><text x="459.2" y="299.0" font-family="'Microsoft YaHei','PingFang SC',sans-serif" font-size="13" fill="#334155" text-anchor="middle">5</text><line x1="554.0" y1="278" x2="554.0" y2="283" stroke="#94a3b8" stroke-width="1.1"/><text x="554.0" y="299.0" font-family="'Microsoft YaHei','PingFang SC',sans-serif" font-size="13" fill="#334155" text-anchor="middle">6</text><text x="317.0" y="320.0" font-family="'Microsoft YaHei','PingFang SC',sans-serif" font-size="13.5" font-weight="bold" fill="#003f88" text-anchor="middle">蒸馏时间 /h</text><rect x="60" y="28" width="56" height="24" fill="#ffffff"/><text x="64" y="46" font-family="'Microsoft YaHei','PingFang SC',sans-serif" font-size="13" font-weight="bold" fill="#003f88">得率/%</text><text x="12" y="20" font-family="'Microsoft YaHei','PingFang SC',sans-serif" font-size="15" font-weight="bold" fill="#003f88">（a）蒸馏时间 /h</text><line x1="610" y1="26" x2="610" y2="316" stroke="#e2e8f0" stroke-width="1"/><line x1="668" y1="224.9" x2="1186" y2="224.9" stroke="#f6f9fd" stroke-width="1"/><line x1="668" y1="189.4" x2="1186" y2="189.4" stroke="#f6f9fd" stroke-width="1"/><line x1="668" y1="154.0" x2="1186" y2="154.0" stroke="#f6f9fd" stroke-width="1"/><line x1="668" y1="118.6" x2="1186" y2="118.6" stroke="#f6f9fd" stroke-width="1"/><line x1="668" y1="83.1" x2="1186" y2="83.1" stroke="#f6f9fd" stroke-width="1"/><line x1="668" y1="47.7" x2="1186" y2="47.7" stroke="#f6f9fd" stroke-width="1"/><line x1="663" y1="224.9" x2="668" y2="224.9" stroke="#94a3b8" stroke-width="1.1"/><text x="659" y="229.4" font-family="'Microsoft YaHei','PingFang SC',sans-serif" font-size="13" fill="#334155" text-anchor="end">0.80</text><line x1="663" y1="154.0" x2="668" y2="154.0" stroke="#94a3b8" stroke-width="1.1"/><text x="659" y="158.5" font-family="'Microsoft YaHei','PingFang SC',sans-serif" font-size="13" fill="#334155" text-anchor="end">1.00</text><line x1="663" y1="83.1" x2="668" y2="83.1" stroke="#94a3b8" stroke-width="1.1"/><text x="659" y="87.6" font-family="'Microsoft YaHei','PingFang SC',sans-serif" font-size="13" fill="#334155" text-anchor="end">1.20</text><line x1="668" y1="30" x2="668" y2="278" stroke="#94a3b8" stroke-width="1.2"/><line x1="668" y1="278" x2="1186" y2="278" stroke="#94a3b8" stroke-width="1.2"/><polyline points="690.0,175.3 784.8,122.1 879.6,86.7 974.4,65.4 1069.2,61.9 1164.0,76.1" fill="none" stroke="#0b4a9e" stroke-width="2.4" stroke-linejoin="round" stroke-linecap="round"/><circle cx="690.0" cy="175.3" r="4" fill="#ffffff" stroke="#0b4a9e" stroke-width="2.2"/><rect x="672.0" y="143.3" width="36.0" height="26" fill="#ffffff"/><text x="690.0" y="162.3" font-family="'Microsoft YaHei','PingFang SC',sans-serif" font-size="12.5" fill="#64748b" font-weight="normal" text-anchor="middle">0.94</text><circle cx="784.8" cy="122.1" r="4" fill="#ffffff" stroke="#0b4a9e" stroke-width="2.2"/><rect x="766.8" y="90.1" width="36.0" height="26" fill="#ffffff"/><text x="784.8" y="109.1" font-family="'Microsoft YaHei','PingFang SC',sans-serif" font-size="12.5" fill="#64748b" font-weight="normal" text-anchor="middle">1.09</text><circle cx="879.6" cy="86.7" r="4" fill="#ffffff" stroke="#0b4a9e" stroke-width="2.2"/><rect x="861.6" y="54.7" width="36.0" height="26" fill="#ffffff"/><text x="879.6" y="73.7" font-family="'Microsoft YaHei','PingFang SC',sans-serif" font-size="12.5" fill="#64748b" font-weight="normal" text-anchor="middle">1.19</text><circle cx="974.4" cy="65.4" r="6.5" fill="#c00000" stroke="#c00000" stroke-width="2.2"/><rect x="956.4" y="31.4" width="36.0" height="26" fill="#ffffff"/><text x="974.4" y="50.4" font-family="'Microsoft YaHei','PingFang SC',sans-serif" font-size="12.5" fill="#c00000" font-weight="bold" text-anchor="middle">1.25</text><circle cx="1069.2" cy="61.9" r="4" fill="#ffffff" stroke="#0b4a9e" stroke-width="2.2"/><rect x="1051.2" y="29.9" width="36.0" height="26" fill="#ffffff"/><text x="1069.2" y="48.9" font-family="'Microsoft YaHei','PingFang SC',sans-serif" font-size="12.5" fill="#64748b" font-weight="normal" text-anchor="middle">1.26</text><circle cx="1164.0" cy="76.1" r="4" fill="#ffffff" stroke="#0b4a9e" stroke-width="2.2"/><rect x="1146.0" y="44.1" width="36.0" height="26" fill="#ffffff"/><text x="1164.0" y="63.1" font-family="'Microsoft YaHei','PingFang SC',sans-serif" font-size="12.5" fill="#64748b" font-weight="normal" text-anchor="middle">1.22</text><line x1="690.0" y1="278" x2="690.0" y2="283" stroke="#94a3b8" stroke-width="1.1"/><text x="690.0" y="299.0" font-family="'Microsoft YaHei','PingFang SC',sans-serif" font-size="13" fill="#334155" text-anchor="middle">0</text><line x1="784.8" y1="278" x2="784.8" y2="283" stroke="#94a3b8" stroke-width="1.1"/><text x="784.8" y="299.0" font-family="'Microsoft YaHei','PingFang SC',sans-serif" font-size="13" fill="#334155" text-anchor="middle">1</text><line x1="879.6" y1="278" x2="879.6" y2="283" stroke="#94a3b8" stroke-width="1.1"/><text x="879.6" y="299.0" font-family="'Microsoft YaHei','PingFang SC',sans-serif" font-size="13" fill="#334155" text-anchor="middle">2</text><line x1="974.4" y1="278" x2="974.4" y2="283" stroke="#94a3b8" stroke-width="1.1"/><text x="974.4" y="299.0" font-family="'Microsoft YaHei','PingFang SC',sans-serif" font-size="13" fill="#334155" text-anchor="middle">3</text><line x1="1069.2" y1="278" x2="1069.2" y2="283" stroke="#94a3b8" stroke-width="1.1"/><text x="1069.2" y="299.0" font-family="'Microsoft YaHei','PingFang SC',sans-serif" font-size="13" fill="#334155" text-anchor="middle">4</text><line x1="1164.0" y1="278" x2="1164.0" y2="283" stroke="#94a3b8" stroke-width="1.1"/><text x="1164.0" y="299.0" font-family="'Microsoft YaHei','PingFang SC',sans-serif" font-size="13" fill="#334155" text-anchor="middle">5</text><text x="927.0" y="320.0" font-family="'Microsoft YaHei','PingFang SC',sans-serif" font-size="13.5" font-weight="bold" fill="#003f88" text-anchor="middle">NaCl 用量 /%</text><rect x="670" y="28" width="56" height="24" fill="#ffffff"/><text x="674" y="46" font-family="'Microsoft YaHei','PingFang SC',sans-serif" font-size="13" font-weight="bold" fill="#003f88">得率/%</text><text x="622" y="20" font-family="'Microsoft YaHei','PingFang SC',sans-serif" font-size="15" font-weight="bold" fill="#003f88">（b）NaCl 用量 /%</text></svg>